<svg viewBox="0 0 24 24" fill="none" xmlns="http://www.w3.org/2000/svg" role="img" aria-label="Concept D1: grid path">
  <g stroke="#e2e8f0" stroke-width="0.4" opacity="0.45">
    <line x1="2" y1="2" x2="22" y2="2"/><line x1="2" y1="7" x2="22" y2="7"/>
    <line x1="2" y1="12" x2="22" y2="12"/><line x1="2" y1="17" x2="22" y2="17"/>
    <line x1="2" y1="22" x2="22" y2="22"/>
    <line x1="2" y1="2" x2="2" y2="22"/><line x1="7" y1="2" x2="7" y2="22"/>
    <line x1="12" y1="2" x2="12" y2="22"/><line x1="17" y1="2" x2="17" y2="22"/>
    <line x1="22" y1="2" x2="22" y2="22"/>
  </g>
  <rect x="1.5" y="19.5" width="3" height="3" rx="0.7" fill="#002CFF"/>
  <rect x="6" y="15" width="3" height="3" rx="0.7" fill="#002CFF"/>
  <rect x="10.5" y="10.5" width="3" height="3" rx="0.7" fill="#00C8FF"/>
  <rect x="15" y="6" width="3" height="3" rx="0.7" fill="#00C8FF"/>
  <rect x="19.5" y="1.5" width="3" height="3" rx="0.7" fill="#FF004D"/>
</svg>
