<svg xmlns="http://www.w3.org/2000/svg" viewBox="0 0 256 256" width="256" height="256">
<title>12c Network graph with AI-found red path</title>
<rect width="256" height="256" fill="#FFFFFF"/>
<circle cx="29.9" cy="123.7" r="0.41" fill="#002CFF"/>
<circle cx="29.9" cy="132.3" r="0.41" fill="#002CFF"/>
<circle cx="38.4" cy="89.6" r="0.42" fill="#002CFF"/>
<circle cx="38.4" cy="98.1" r="0.46" fill="#002CFF"/>
<circle cx="38.4" cy="106.7" r="0.49" fill="#002CFF"/>
<circle cx="38.4" cy="115.2" r="0.52" fill="#002CFF"/>
<circle cx="38.4" cy="123.7" r="0.53" fill="#002CFF"/>
<circle cx="38.4" cy="132.3" r="0.53" fill="#002CFF"/>
<circle cx="38.4" cy="140.8" r="0.52" fill="#002CFF"/>
<circle cx="38.4" cy="149.3" r="0.49" fill="#002CFF"/>
<circle cx="38.4" cy="157.9" r="0.46" fill="#002CFF"/>
<circle cx="38.4" cy="166.4" r="0.42" fill="#002CFF"/>
<circle cx="46.9" cy="72.5" r="0.41" fill="#002CFF"/>
<circle cx="46.9" cy="81.1" r="0.47" fill="#002CFF"/>
<circle cx="46.9" cy="89.6" r="0.53" fill="#002CFF"/>
<circle cx="46.9" cy="98.1" r="0.58" fill="#002CFF"/>
<circle cx="46.9" cy="106.7" r="0.62" fill="#002CFF"/>
<circle cx="46.9" cy="115.2" r="0.65" fill="#002CFF"/>
<circle cx="46.9" cy="123.7" r="0.67" fill="#002CFF"/>
<circle cx="46.9" cy="132.3" r="0.67" fill="#002CFF"/>
<circle cx="46.9" cy="140.8" r="0.65" fill="#002CFF"/>
<circle cx="46.9" cy="149.3" r="0.62" fill="#002CFF"/>
<circle cx="46.9" cy="157.9" r="0.58" fill="#002CFF"/>
<circle cx="46.9" cy="166.4" r="0.53" fill="#002CFF"/>
<circle cx="46.9" cy="174.9" r="0.47" fill="#002CFF"/>
<circle cx="46.9" cy="183.5" r="0.41" fill="#002CFF"/>
<circle cx="55.5" cy="64.0" r="0.43" fill="#002CFF"/>
<circle cx="55.5" cy="72.5" r="0.51" fill="#002CFF"/>
<circle cx="55.5" cy="81.1" r="0.58" fill="#002CFF"/>
<circle cx="55.5" cy="89.6" r="0.65" fill="#002CFF"/>
<circle cx="55.5" cy="98.1" r="0.71" fill="#002CFF"/>
<circle cx="55.5" cy="106.7" r="0.76" fill="#002CFF"/>
<circle cx="55.5" cy="115.2" r="0.80" fill="#002CFF"/>
<circle cx="55.5" cy="123.7" r="0.82" fill="#002CFF"/>
<circle cx="55.5" cy="132.3" r="0.82" fill="#002CFF"/>
<circle cx="55.5" cy="140.8" r="0.80" fill="#002CFF"/>
<circle cx="55.5" cy="149.3" r="0.76" fill="#002CFF"/>
<circle cx="55.5" cy="157.9" r="0.71" fill="#002CFF"/>
<circle cx="55.5" cy="166.4" r="0.65" fill="#002CFF"/>
<circle cx="55.5" cy="174.9" r="0.58" fill="#002CFF"/>
<circle cx="55.5" cy="183.5" r="0.51" fill="#002CFF"/>
<circle cx="55.5" cy="192.0" r="0.43" fill="#002CFF"/>
<circle cx="64.0" cy="55.5" r="0.43" fill="#002CFF"/>
<circle cx="64.0" cy="64.0" r="0.52" fill="#002CFF"/>
<circle cx="64.0" cy="72.5" r="0.61" fill="#002CFF"/>
<circle cx="64.0" cy="81.1" r="0.70" fill="#002CFF"/>
<circle cx="64.0" cy="89.6" r="0.78" fill="#002CFF"/>
<circle cx="64.0" cy="98.1" r="0.86" fill="#002CFF"/>
<circle cx="64.0" cy="106.7" r="0.92" fill="#002CFF"/>
<circle cx="64.0" cy="115.2" r="0.96" fill="#002CFF"/>
<circle cx="64.0" cy="123.7" r="0.99" fill="#002CFF"/>
<circle cx="64.0" cy="132.3" r="0.99" fill="#002CFF"/>
<circle cx="64.0" cy="140.8" r="0.96" fill="#002CFF"/>
<circle cx="64.0" cy="149.3" r="0.92" fill="#002CFF"/>
<circle cx="64.0" cy="157.9" r="0.86" fill="#002CFF"/>
<circle cx="64.0" cy="166.4" r="0.78" fill="#002CFF"/>
<circle cx="64.0" cy="174.9" r="0.70" fill="#002CFF"/>
<circle cx="64.0" cy="183.5" r="0.61" fill="#002CFF"/>
<circle cx="64.0" cy="192.0" r="0.52" fill="#002CFF"/>
<circle cx="64.0" cy="200.5" r="0.43" fill="#002CFF"/>
<circle cx="72.5" cy="46.9" r="0.41" fill="#002CFF"/>
<circle cx="72.5" cy="55.5" r="0.51" fill="#002CFF"/>
<circle cx="72.5" cy="64.0" r="0.61" fill="#002CFF"/>
<circle cx="72.5" cy="72.5" r="0.71" fill="#002CFF"/>
<circle cx="72.5" cy="81.1" r="0.82" fill="#002CFF"/>
<circle cx="72.5" cy="89.6" r="0.92" fill="#002CFF"/>
<circle cx="72.5" cy="98.1" r="1.01" fill="#002CFF"/>
<circle cx="72.5" cy="106.7" r="1.09" fill="#002CFF"/>
<circle cx="72.5" cy="115.2" r="1.14" fill="#002CFF"/>
<circle cx="72.5" cy="123.7" r="1.17" fill="#002CFF"/>
<circle cx="72.5" cy="132.3" r="1.17" fill="#002CFF"/>
<circle cx="72.5" cy="140.8" r="1.14" fill="#002CFF"/>
<circle cx="72.5" cy="149.3" r="1.09" fill="#002CFF"/>
<circle cx="72.5" cy="157.9" r="1.01" fill="#002CFF"/>
<circle cx="72.5" cy="166.4" r="0.92" fill="#002CFF"/>
<circle cx="72.5" cy="174.9" r="0.82" fill="#002CFF"/>
<circle cx="72.5" cy="183.5" r="0.71" fill="#002CFF"/>
<circle cx="72.5" cy="192.0" r="0.61" fill="#002CFF"/>
<circle cx="72.5" cy="200.5" r="0.51" fill="#002CFF"/>
<circle cx="72.5" cy="209.1" r="0.41" fill="#002CFF"/>
<circle cx="81.1" cy="46.9" r="0.47" fill="#00C8FF"/>
<circle cx="81.1" cy="55.5" r="0.58" fill="#00C8FF"/>
<circle cx="81.1" cy="64.0" r="0.70" fill="#00C8FF"/>
<circle cx="81.1" cy="72.5" r="0.82" fill="#00C8FF"/>
<circle cx="81.1" cy="81.1" r="0.94" fill="#00C8FF"/>
<circle cx="81.1" cy="89.6" r="1.06" fill="#00C8FF"/>
<circle cx="81.1" cy="98.1" r="1.17" fill="#00C8FF"/>
<circle cx="81.1" cy="106.7" r="1.26" fill="#00C8FF"/>
<circle cx="81.1" cy="115.2" r="1.33" fill="#00C8FF"/>
<circle cx="81.1" cy="123.7" r="1.37" fill="#00C8FF"/>
<circle cx="81.1" cy="132.3" r="1.37" fill="#00C8FF"/>
<circle cx="81.1" cy="140.8" r="1.33" fill="#00C8FF"/>
<circle cx="81.1" cy="149.3" r="1.26" fill="#00C8FF"/>
<circle cx="81.1" cy="157.9" r="1.17" fill="#00C8FF"/>
<circle cx="81.1" cy="166.4" r="1.06" fill="#00C8FF"/>
<circle cx="81.1" cy="174.9" r="0.94" fill="#00C8FF"/>
<circle cx="81.1" cy="183.5" r="0.82" fill="#00C8FF"/>
<circle cx="81.1" cy="192.0" r="0.70" fill="#00C8FF"/>
<circle cx="81.1" cy="200.5" r="0.58" fill="#00C8FF"/>
<circle cx="81.1" cy="209.1" r="0.47" fill="#00C8FF"/>
<circle cx="89.6" cy="38.4" r="0.42" fill="#00C8FF"/>
<circle cx="89.6" cy="46.9" r="0.53" fill="#00C8FF"/>
<circle cx="89.6" cy="55.5" r="0.65" fill="#00C8FF"/>
<circle cx="89.6" cy="64.0" r="0.78" fill="#00C8FF"/>
<circle cx="89.6" cy="72.5" r="0.92" fill="#00C8FF"/>
<circle cx="89.6" cy="81.1" r="1.06" fill="#00C8FF"/>
<circle cx="89.6" cy="89.6" r="1.20" fill="#00C8FF"/>
<circle cx="89.6" cy="98.1" r="1.33" fill="#00C8FF"/>
<circle cx="89.6" cy="106.7" r="1.45" fill="#00C8FF"/>
<circle cx="89.6" cy="115.2" r="1.53" fill="#00C8FF"/>
<circle cx="89.6" cy="123.7" r="1.58" fill="#00C8FF"/>
<circle cx="89.6" cy="132.3" r="1.58" fill="#00C8FF"/>
<circle cx="89.6" cy="140.8" r="1.53" fill="#00C8FF"/>
<circle cx="89.6" cy="149.3" r="1.45" fill="#00C8FF"/>
<circle cx="89.6" cy="157.9" r="1.33" fill="#00C8FF"/>
<circle cx="89.6" cy="166.4" r="1.20" fill="#00C8FF"/>
<circle cx="89.6" cy="174.9" r="1.06" fill="#00C8FF"/>
<circle cx="89.6" cy="183.5" r="0.92" fill="#00C8FF"/>
<circle cx="89.6" cy="192.0" r="0.78" fill="#00C8FF"/>
<circle cx="89.6" cy="200.5" r="0.65" fill="#00C8FF"/>
<circle cx="89.6" cy="209.1" r="0.53" fill="#00C8FF"/>
<circle cx="89.6" cy="217.6" r="0.42" fill="#00C8FF"/>
<circle cx="98.1" cy="38.4" r="0.46" fill="#00C8FF"/>
<circle cx="98.1" cy="46.9" r="0.58" fill="#00C8FF"/>
<circle cx="98.1" cy="55.5" r="0.71" fill="#00C8FF"/>
<circle cx="98.1" cy="64.0" r="0.86" fill="#00C8FF"/>
<circle cx="98.1" cy="72.5" r="1.01" fill="#00C8FF"/>
<circle cx="98.1" cy="81.1" r="1.17" fill="#00C8FF"/>
<circle cx="98.1" cy="89.6" r="1.33" fill="#00C8FF"/>
<circle cx="98.1" cy="98.1" r="1.49" fill="#00C8FF"/>
<circle cx="98.1" cy="106.7" r="1.63" fill="#00C8FF"/>
<circle cx="98.1" cy="115.2" r="1.75" fill="#00C8FF"/>
<circle cx="98.1" cy="123.7" r="1.81" fill="#00C8FF"/>
<circle cx="98.1" cy="132.3" r="1.81" fill="#00C8FF"/>
<circle cx="98.1" cy="140.8" r="1.75" fill="#00C8FF"/>
<circle cx="98.1" cy="149.3" r="1.63" fill="#00C8FF"/>
<circle cx="98.1" cy="157.9" r="1.49" fill="#00C8FF"/>
<circle cx="98.1" cy="166.4" r="1.33" fill="#00C8FF"/>
<circle cx="98.1" cy="174.9" r="1.17" fill="#00C8FF"/>
<circle cx="98.1" cy="183.5" r="1.01" fill="#00C8FF"/>
<circle cx="98.1" cy="192.0" r="0.86" fill="#00C8FF"/>
<circle cx="98.1" cy="200.5" r="0.71" fill="#00C8FF"/>
<circle cx="98.1" cy="209.1" r="0.58" fill="#00C8FF"/>
<circle cx="98.1" cy="217.6" r="0.46" fill="#00C8FF"/>
<circle cx="106.7" cy="38.4" r="0.49" fill="#00C8FF"/>
<circle cx="106.7" cy="46.9" r="0.62" fill="#00C8FF"/>
<circle cx="106.7" cy="55.5" r="0.76" fill="#00C8FF"/>
<circle cx="106.7" cy="64.0" r="0.92" fill="#00C8FF"/>
<circle cx="106.7" cy="72.5" r="1.09" fill="#00C8FF"/>
<circle cx="106.7" cy="81.1" r="1.26" fill="#00C8FF"/>
<circle cx="106.7" cy="89.6" r="1.45" fill="#00C8FF"/>
<circle cx="106.7" cy="98.1" r="1.63" fill="#00C8FF"/>
<circle cx="106.7" cy="106.7" r="1.81" fill="#00C8FF"/>
<circle cx="106.7" cy="115.2" r="1.96" fill="#00C8FF"/>
<circle cx="106.7" cy="123.7" r="2.05" fill="#00C8FF"/>
<circle cx="106.7" cy="132.3" r="2.05" fill="#00C8FF"/>
<circle cx="106.7" cy="140.8" r="1.96" fill="#00C8FF"/>
<circle cx="106.7" cy="149.3" r="1.81" fill="#00C8FF"/>
<circle cx="106.7" cy="157.9" r="1.63" fill="#00C8FF"/>
<circle cx="106.7" cy="166.4" r="1.45" fill="#00C8FF"/>
<circle cx="106.7" cy="174.9" r="1.26" fill="#00C8FF"/>
<circle cx="106.7" cy="183.5" r="1.09" fill="#00C8FF"/>
<circle cx="106.7" cy="192.0" r="0.92" fill="#00C8FF"/>
<circle cx="106.7" cy="200.5" r="0.76" fill="#00C8FF"/>
<circle cx="106.7" cy="209.1" r="0.62" fill="#00C8FF"/>
<circle cx="106.7" cy="217.6" r="0.49" fill="#00C8FF"/>
<circle cx="115.2" cy="38.4" r="0.52" fill="#00C8FF"/>
<circle cx="115.2" cy="46.9" r="0.65" fill="#00C8FF"/>
<circle cx="115.2" cy="55.5" r="0.80" fill="#00C8FF"/>
<circle cx="115.2" cy="64.0" r="0.96" fill="#00C8FF"/>
<circle cx="115.2" cy="72.5" r="1.14" fill="#00C8FF"/>
<circle cx="115.2" cy="81.1" r="1.33" fill="#00C8FF"/>
<circle cx="115.2" cy="89.6" r="1.53" fill="#00C8FF"/>
<circle cx="115.2" cy="98.1" r="1.75" fill="#00C8FF"/>
<circle cx="115.2" cy="106.7" r="1.96" fill="#00C8FF"/>
<circle cx="115.2" cy="115.2" r="2.16" fill="#00C8FF"/>
<circle cx="115.2" cy="123.7" r="2.30" fill="#00C8FF"/>
<circle cx="115.2" cy="132.3" r="2.30" fill="#00C8FF"/>
<circle cx="115.2" cy="140.8" r="2.16" fill="#00C8FF"/>
<circle cx="115.2" cy="149.3" r="1.96" fill="#00C8FF"/>
<circle cx="115.2" cy="157.9" r="1.75" fill="#00C8FF"/>
<circle cx="115.2" cy="166.4" r="1.53" fill="#00C8FF"/>
<circle cx="115.2" cy="174.9" r="1.33" fill="#00C8FF"/>
<circle cx="115.2" cy="183.5" r="1.14" fill="#00C8FF"/>
<circle cx="115.2" cy="192.0" r="0.96" fill="#00C8FF"/>
<circle cx="115.2" cy="200.5" r="0.80" fill="#00C8FF"/>
<circle cx="115.2" cy="209.1" r="0.65" fill="#00C8FF"/>
<circle cx="115.2" cy="217.6" r="0.52" fill="#00C8FF"/>
<circle cx="123.7" cy="29.9" r="0.41" fill="#00C8FF"/>
<circle cx="123.7" cy="38.4" r="0.53" fill="#00C8FF"/>
<circle cx="123.7" cy="46.9" r="0.67" fill="#00C8FF"/>
<circle cx="123.7" cy="55.5" r="0.82" fill="#00C8FF"/>
<circle cx="123.7" cy="64.0" r="0.99" fill="#00C8FF"/>
<circle cx="123.7" cy="72.5" r="1.17" fill="#00C8FF"/>
<circle cx="123.7" cy="81.1" r="1.37" fill="#00C8FF"/>
<circle cx="123.7" cy="89.6" r="1.58" fill="#00C8FF"/>
<circle cx="123.7" cy="98.1" r="1.81" fill="#00C8FF"/>
<circle cx="123.7" cy="106.7" r="2.05" fill="#00C8FF"/>
<circle cx="123.7" cy="115.2" r="2.30" fill="#00C8FF"/>
<circle cx="123.7" cy="123.7" r="2.54" fill="#00C8FF"/>
<circle cx="123.7" cy="132.3" r="2.54" fill="#00C8FF"/>
<circle cx="123.7" cy="140.8" r="2.30" fill="#00C8FF"/>
<circle cx="123.7" cy="149.3" r="2.05" fill="#00C8FF"/>
<circle cx="123.7" cy="157.9" r="1.81" fill="#00C8FF"/>
<circle cx="123.7" cy="166.4" r="1.58" fill="#00C8FF"/>
<circle cx="123.7" cy="174.9" r="1.37" fill="#00C8FF"/>
<circle cx="123.7" cy="183.5" r="1.17" fill="#00C8FF"/>
<circle cx="123.7" cy="192.0" r="0.99" fill="#00C8FF"/>
<circle cx="123.7" cy="200.5" r="0.82" fill="#00C8FF"/>
<circle cx="123.7" cy="209.1" r="0.67" fill="#00C8FF"/>
<circle cx="123.7" cy="217.6" r="0.53" fill="#00C8FF"/>
<circle cx="123.7" cy="226.1" r="0.41" fill="#00C8FF"/>
<circle cx="132.3" cy="29.9" r="0.41" fill="#00C8FF"/>
<circle cx="132.3" cy="38.4" r="0.53" fill="#00C8FF"/>
<circle cx="132.3" cy="46.9" r="0.67" fill="#00C8FF"/>
<circle cx="132.3" cy="55.5" r="0.82" fill="#00C8FF"/>
<circle cx="132.3" cy="64.0" r="0.99" fill="#00C8FF"/>
<circle cx="132.3" cy="72.5" r="1.17" fill="#00C8FF"/>
<circle cx="132.3" cy="81.1" r="1.37" fill="#00C8FF"/>
<circle cx="132.3" cy="89.6" r="1.58" fill="#00C8FF"/>
<circle cx="132.3" cy="98.1" r="1.81" fill="#00C8FF"/>
<circle cx="132.3" cy="106.7" r="2.05" fill="#00C8FF"/>
<circle cx="132.3" cy="115.2" r="2.30" fill="#00C8FF"/>
<circle cx="132.3" cy="123.7" r="2.54" fill="#00C8FF"/>
<circle cx="132.3" cy="132.3" r="2.54" fill="#00C8FF"/>
<circle cx="132.3" cy="140.8" r="2.30" fill="#00C8FF"/>
<circle cx="132.3" cy="149.3" r="2.05" fill="#00C8FF"/>
<circle cx="132.3" cy="157.9" r="1.81" fill="#00C8FF"/>
<circle cx="132.3" cy="166.4" r="1.58" fill="#00C8FF"/>
<circle cx="132.3" cy="174.9" r="1.37" fill="#00C8FF"/>
<circle cx="132.3" cy="183.5" r="1.17" fill="#00C8FF"/>
<circle cx="132.3" cy="192.0" r="0.99" fill="#00C8FF"/>
<circle cx="132.3" cy="200.5" r="0.82" fill="#00C8FF"/>
<circle cx="132.3" cy="209.1" r="0.67" fill="#00C8FF"/>
<circle cx="132.3" cy="217.6" r="0.53" fill="#00C8FF"/>
<circle cx="132.3" cy="226.1" r="0.41" fill="#00C8FF"/>
<circle cx="140.8" cy="38.4" r="0.52" fill="#00C8FF"/>
<circle cx="140.8" cy="46.9" r="0.65" fill="#00C8FF"/>
<circle cx="140.8" cy="55.5" r="0.80" fill="#00C8FF"/>
<circle cx="140.8" cy="64.0" r="0.96" fill="#00C8FF"/>
<circle cx="140.8" cy="72.5" r="1.14" fill="#00C8FF"/>
<circle cx="140.8" cy="81.1" r="1.33" fill="#00C8FF"/>
<circle cx="140.8" cy="89.6" r="1.53" fill="#00C8FF"/>
<circle cx="140.8" cy="98.1" r="1.75" fill="#00C8FF"/>
<circle cx="140.8" cy="106.7" r="1.96" fill="#00C8FF"/>
<circle cx="140.8" cy="115.2" r="2.16" fill="#00C8FF"/>
<circle cx="140.8" cy="123.7" r="2.30" fill="#00C8FF"/>
<circle cx="140.8" cy="132.3" r="2.30" fill="#00C8FF"/>
<circle cx="140.8" cy="140.8" r="2.16" fill="#00C8FF"/>
<circle cx="140.8" cy="149.3" r="1.96" fill="#00C8FF"/>
<circle cx="140.8" cy="157.9" r="1.75" fill="#00C8FF"/>
<circle cx="140.8" cy="166.4" r="1.53" fill="#00C8FF"/>
<circle cx="140.8" cy="174.9" r="1.33" fill="#00C8FF"/>
<circle cx="140.8" cy="183.5" r="1.14" fill="#00C8FF"/>
<circle cx="140.8" cy="192.0" r="0.96" fill="#00C8FF"/>
<circle cx="140.8" cy="200.5" r="0.80" fill="#00C8FF"/>
<circle cx="140.8" cy="209.1" r="0.65" fill="#00C8FF"/>
<circle cx="140.8" cy="217.6" r="0.52" fill="#00C8FF"/>
<circle cx="149.3" cy="38.4" r="0.49" fill="#00C8FF"/>
<circle cx="149.3" cy="46.9" r="0.62" fill="#00C8FF"/>
<circle cx="149.3" cy="55.5" r="0.76" fill="#00C8FF"/>
<circle cx="149.3" cy="64.0" r="0.92" fill="#00C8FF"/>
<circle cx="149.3" cy="72.5" r="1.09" fill="#00C8FF"/>
<circle cx="149.3" cy="81.1" r="1.26" fill="#00C8FF"/>
<circle cx="149.3" cy="89.6" r="1.45" fill="#00C8FF"/>
<circle cx="149.3" cy="98.1" r="1.63" fill="#00C8FF"/>
<circle cx="149.3" cy="106.7" r="1.81" fill="#00C8FF"/>
<circle cx="149.3" cy="115.2" r="1.96" fill="#00C8FF"/>
<circle cx="149.3" cy="123.7" r="2.05" fill="#00C8FF"/>
<circle cx="149.3" cy="132.3" r="2.05" fill="#00C8FF"/>
<circle cx="149.3" cy="140.8" r="1.96" fill="#00C8FF"/>
<circle cx="149.3" cy="149.3" r="1.81" fill="#00C8FF"/>
<circle cx="149.3" cy="157.9" r="1.63" fill="#00C8FF"/>
<circle cx="149.3" cy="166.4" r="1.45" fill="#00C8FF"/>
<circle cx="149.3" cy="174.9" r="1.26" fill="#00C8FF"/>
<circle cx="149.3" cy="183.5" r="1.09" fill="#00C8FF"/>
<circle cx="149.3" cy="192.0" r="0.92" fill="#00C8FF"/>
<circle cx="149.3" cy="200.5" r="0.76" fill="#00C8FF"/>
<circle cx="149.3" cy="209.1" r="0.62" fill="#00C8FF"/>
<circle cx="149.3" cy="217.6" r="0.49" fill="#00C8FF"/>
<circle cx="157.9" cy="38.4" r="0.46" fill="#00C8FF"/>
<circle cx="157.9" cy="46.9" r="0.58" fill="#00C8FF"/>
<circle cx="157.9" cy="55.5" r="0.71" fill="#00C8FF"/>
<circle cx="157.9" cy="64.0" r="0.86" fill="#00C8FF"/>
<circle cx="157.9" cy="72.5" r="1.01" fill="#00C8FF"/>
<circle cx="157.9" cy="81.1" r="1.17" fill="#00C8FF"/>
<circle cx="157.9" cy="89.6" r="1.33" fill="#00C8FF"/>
<circle cx="157.9" cy="98.1" r="1.49" fill="#00C8FF"/>
<circle cx="157.9" cy="106.7" r="1.63" fill="#00C8FF"/>
<circle cx="157.9" cy="115.2" r="1.75" fill="#00C8FF"/>
<circle cx="157.9" cy="123.7" r="1.81" fill="#00C8FF"/>
<circle cx="157.9" cy="132.3" r="1.81" fill="#00C8FF"/>
<circle cx="157.9" cy="140.8" r="1.75" fill="#00C8FF"/>
<circle cx="157.9" cy="149.3" r="1.63" fill="#00C8FF"/>
<circle cx="157.9" cy="157.9" r="1.49" fill="#00C8FF"/>
<circle cx="157.9" cy="166.4" r="1.33" fill="#00C8FF"/>
<circle cx="157.9" cy="174.9" r="1.17" fill="#00C8FF"/>
<circle cx="157.9" cy="183.5" r="1.01" fill="#00C8FF"/>
<circle cx="157.9" cy="192.0" r="0.86" fill="#00C8FF"/>
<circle cx="157.9" cy="200.5" r="0.71" fill="#00C8FF"/>
<circle cx="157.9" cy="209.1" r="0.58" fill="#00C8FF"/>
<circle cx="157.9" cy="217.6" r="0.46" fill="#00C8FF"/>
<circle cx="166.4" cy="38.4" r="0.42" fill="#00C8FF"/>
<circle cx="166.4" cy="46.9" r="0.53" fill="#00C8FF"/>
<circle cx="166.4" cy="55.5" r="0.65" fill="#00C8FF"/>
<circle cx="166.4" cy="64.0" r="0.78" fill="#00C8FF"/>
<circle cx="166.4" cy="72.5" r="0.92" fill="#00C8FF"/>
<circle cx="166.4" cy="81.1" r="1.06" fill="#00C8FF"/>
<circle cx="166.4" cy="89.6" r="1.20" fill="#00C8FF"/>
<circle cx="166.4" cy="98.1" r="1.33" fill="#00C8FF"/>
<circle cx="166.4" cy="106.7" r="1.45" fill="#00C8FF"/>
<circle cx="166.4" cy="115.2" r="1.53" fill="#00C8FF"/>
<circle cx="166.4" cy="123.7" r="1.58" fill="#00C8FF"/>
<circle cx="166.4" cy="132.3" r="1.58" fill="#00C8FF"/>
<circle cx="166.4" cy="140.8" r="1.53" fill="#00C8FF"/>
<circle cx="166.4" cy="149.3" r="1.45" fill="#00C8FF"/>
<circle cx="166.4" cy="157.9" r="1.33" fill="#00C8FF"/>
<circle cx="166.4" cy="166.4" r="1.20" fill="#00C8FF"/>
<circle cx="166.4" cy="174.9" r="1.06" fill="#00C8FF"/>
<circle cx="166.4" cy="183.5" r="0.92" fill="#00C8FF"/>
<circle cx="166.4" cy="192.0" r="0.78" fill="#00C8FF"/>
<circle cx="166.4" cy="200.5" r="0.65" fill="#00C8FF"/>
<circle cx="166.4" cy="209.1" r="0.53" fill="#00C8FF"/>
<circle cx="166.4" cy="217.6" r="0.42" fill="#00C8FF"/>
<circle cx="174.9" cy="46.9" r="0.47" fill="#FF004D"/>
<circle cx="174.9" cy="55.5" r="0.58" fill="#FF004D"/>
<circle cx="174.9" cy="64.0" r="0.70" fill="#FF004D"/>
<circle cx="174.9" cy="72.5" r="0.82" fill="#FF004D"/>
<circle cx="174.9" cy="81.1" r="0.94" fill="#FF004D"/>
<circle cx="174.9" cy="89.6" r="1.06" fill="#FF004D"/>
<circle cx="174.9" cy="98.1" r="1.17" fill="#FF004D"/>
<circle cx="174.9" cy="106.7" r="1.26" fill="#FF004D"/>
<circle cx="174.9" cy="115.2" r="1.33" fill="#FF004D"/>
<circle cx="174.9" cy="123.7" r="1.37" fill="#FF004D"/>
<circle cx="174.9" cy="132.3" r="1.37" fill="#FF004D"/>
<circle cx="174.9" cy="140.8" r="1.33" fill="#FF004D"/>
<circle cx="174.9" cy="149.3" r="1.26" fill="#FF004D"/>
<circle cx="174.9" cy="157.9" r="1.17" fill="#FF004D"/>
<circle cx="174.9" cy="166.4" r="1.06" fill="#FF004D"/>
<circle cx="174.9" cy="174.9" r="0.94" fill="#FF004D"/>
<circle cx="174.9" cy="183.5" r="0.82" fill="#FF004D"/>
<circle cx="174.9" cy="192.0" r="0.70" fill="#FF004D"/>
<circle cx="174.9" cy="200.5" r="0.58" fill="#FF004D"/>
<circle cx="174.9" cy="209.1" r="0.47" fill="#FF004D"/>
<circle cx="183.5" cy="46.9" r="0.41" fill="#FF004D"/>
<circle cx="183.5" cy="55.5" r="0.51" fill="#FF004D"/>
<circle cx="183.5" cy="64.0" r="0.61" fill="#FF004D"/>
<circle cx="183.5" cy="72.5" r="0.71" fill="#FF004D"/>
<circle cx="183.5" cy="81.1" r="0.82" fill="#FF004D"/>
<circle cx="183.5" cy="89.6" r="0.92" fill="#FF004D"/>
<circle cx="183.5" cy="98.1" r="1.01" fill="#FF004D"/>
<circle cx="183.5" cy="106.7" r="1.09" fill="#FF004D"/>
<circle cx="183.5" cy="115.2" r="1.14" fill="#FF004D"/>
<circle cx="183.5" cy="123.7" r="1.17" fill="#FF004D"/>
<circle cx="183.5" cy="132.3" r="1.17" fill="#FF004D"/>
<circle cx="183.5" cy="140.8" r="1.14" fill="#FF004D"/>
<circle cx="183.5" cy="149.3" r="1.09" fill="#FF004D"/>
<circle cx="183.5" cy="157.9" r="1.01" fill="#FF004D"/>
<circle cx="183.5" cy="166.4" r="0.92" fill="#FF004D"/>
<circle cx="183.5" cy="174.9" r="0.82" fill="#FF004D"/>
<circle cx="183.5" cy="183.5" r="0.71" fill="#FF004D"/>
<circle cx="183.5" cy="192.0" r="0.61" fill="#FF004D"/>
<circle cx="183.5" cy="200.5" r="0.51" fill="#FF004D"/>
<circle cx="183.5" cy="209.1" r="0.41" fill="#FF004D"/>
<circle cx="192.0" cy="55.5" r="0.43" fill="#FF004D"/>
<circle cx="192.0" cy="64.0" r="0.52" fill="#FF004D"/>
<circle cx="192.0" cy="72.5" r="0.61" fill="#FF004D"/>
<circle cx="192.0" cy="81.1" r="0.70" fill="#FF004D"/>
<circle cx="192.0" cy="89.6" r="0.78" fill="#FF004D"/>
<circle cx="192.0" cy="98.1" r="0.86" fill="#FF004D"/>
<circle cx="192.0" cy="106.7" r="0.92" fill="#FF004D"/>
<circle cx="192.0" cy="115.2" r="0.96" fill="#FF004D"/>
<circle cx="192.0" cy="123.7" r="0.99" fill="#FF004D"/>
<circle cx="192.0" cy="132.3" r="0.99" fill="#FF004D"/>
<circle cx="192.0" cy="140.8" r="0.96" fill="#FF004D"/>
<circle cx="192.0" cy="149.3" r="0.92" fill="#FF004D"/>
<circle cx="192.0" cy="157.9" r="0.86" fill="#FF004D"/>
<circle cx="192.0" cy="166.4" r="0.78" fill="#FF004D"/>
<circle cx="192.0" cy="174.9" r="0.70" fill="#FF004D"/>
<circle cx="192.0" cy="183.5" r="0.61" fill="#FF004D"/>
<circle cx="192.0" cy="192.0" r="0.52" fill="#FF004D"/>
<circle cx="192.0" cy="200.5" r="0.43" fill="#FF004D"/>
<circle cx="200.5" cy="64.0" r="0.43" fill="#FF004D"/>
<circle cx="200.5" cy="72.5" r="0.51" fill="#FF004D"/>
<circle cx="200.5" cy="81.1" r="0.58" fill="#FF004D"/>
<circle cx="200.5" cy="89.6" r="0.65" fill="#FF004D"/>
<circle cx="200.5" cy="98.1" r="0.71" fill="#FF004D"/>
<circle cx="200.5" cy="106.7" r="0.76" fill="#FF004D"/>
<circle cx="200.5" cy="115.2" r="0.80" fill="#FF004D"/>
<circle cx="200.5" cy="123.7" r="0.82" fill="#FF004D"/>
<circle cx="200.5" cy="132.3" r="0.82" fill="#FF004D"/>
<circle cx="200.5" cy="140.8" r="0.80" fill="#FF004D"/>
<circle cx="200.5" cy="149.3" r="0.76" fill="#FF004D"/>
<circle cx="200.5" cy="157.9" r="0.71" fill="#FF004D"/>
<circle cx="200.5" cy="166.4" r="0.65" fill="#FF004D"/>
<circle cx="200.5" cy="174.9" r="0.58" fill="#FF004D"/>
<circle cx="200.5" cy="183.5" r="0.51" fill="#FF004D"/>
<circle cx="200.5" cy="192.0" r="0.43" fill="#FF004D"/>
<circle cx="209.1" cy="72.5" r="0.41" fill="#FF004D"/>
<circle cx="209.1" cy="81.1" r="0.47" fill="#FF004D"/>
<circle cx="209.1" cy="89.6" r="0.53" fill="#FF004D"/>
<circle cx="209.1" cy="98.1" r="0.58" fill="#FF004D"/>
<circle cx="209.1" cy="106.7" r="0.62" fill="#FF004D"/>
<circle cx="209.1" cy="115.2" r="0.65" fill="#FF004D"/>
<circle cx="209.1" cy="123.7" r="0.67" fill="#FF004D"/>
<circle cx="209.1" cy="132.3" r="0.67" fill="#FF004D"/>
<circle cx="209.1" cy="140.8" r="0.65" fill="#FF004D"/>
<circle cx="209.1" cy="149.3" r="0.62" fill="#FF004D"/>
<circle cx="209.1" cy="157.9" r="0.58" fill="#FF004D"/>
<circle cx="209.1" cy="166.4" r="0.53" fill="#FF004D"/>
<circle cx="209.1" cy="174.9" r="0.47" fill="#FF004D"/>
<circle cx="209.1" cy="183.5" r="0.41" fill="#FF004D"/>
<circle cx="217.6" cy="89.6" r="0.42" fill="#FF004D"/>
<circle cx="217.6" cy="98.1" r="0.46" fill="#FF004D"/>
<circle cx="217.6" cy="106.7" r="0.49" fill="#FF004D"/>
<circle cx="217.6" cy="115.2" r="0.52" fill="#FF004D"/>
<circle cx="217.6" cy="123.7" r="0.53" fill="#FF004D"/>
<circle cx="217.6" cy="132.3" r="0.53" fill="#FF004D"/>
<circle cx="217.6" cy="140.8" r="0.52" fill="#FF004D"/>
<circle cx="217.6" cy="149.3" r="0.49" fill="#FF004D"/>
<circle cx="217.6" cy="157.9" r="0.46" fill="#FF004D"/>
<circle cx="217.6" cy="166.4" r="0.42" fill="#FF004D"/>
<circle cx="226.1" cy="123.7" r="0.41" fill="#FF004D"/>
<circle cx="226.1" cy="132.3" r="0.41" fill="#FF004D"/>
<line x1="110" y1="70" x2="160" y2="95" stroke="#00C8FF" stroke-width="2" stroke-linecap="round" opacity="0.6"/>
<line x1="160" y1="95" x2="208" y2="85" stroke="#00C8FF" stroke-width="2" stroke-linecap="round" opacity="0.6"/>
<line x1="110" y1="70" x2="50" y2="140" stroke="#00C8FF" stroke-width="2" stroke-linecap="round" opacity="0.6"/>
<line x1="50" y1="140" x2="95" y2="130" stroke="#00C8FF" stroke-width="2" stroke-linecap="round" opacity="0.6"/>
<line x1="95" y1="130" x2="75" y2="185" stroke="#00C8FF" stroke-width="2" stroke-linecap="round" opacity="0.6"/>
<line x1="145" y1="145" x2="130" y2="195" stroke="#00C8FF" stroke-width="2" stroke-linecap="round" opacity="0.6"/>
<line x1="130" y1="195" x2="180" y2="180" stroke="#00C8FF" stroke-width="2" stroke-linecap="round" opacity="0.6"/>
<line x1="208" y1="85" x2="195" y2="135" stroke="#00C8FF" stroke-width="2" stroke-linecap="round" opacity="0.6"/>
<line x1="160" y1="95" x2="145" y2="145" stroke="#00C8FF" stroke-width="2" stroke-linecap="round" opacity="0.6"/>
<line x1="60" y1="90" x2="50" y2="140" stroke="#00C8FF" stroke-width="2" stroke-linecap="round" opacity="0.6"/>
<line x1="75" y1="185" x2="130" y2="195" stroke="#00C8FF" stroke-width="2" stroke-linecap="round" opacity="0.6"/>
<line x1="60" y1="90" x2="110" y2="70" stroke="#FF004D" stroke-width="5" stroke-linecap="round"/>
<line x1="110" y1="70" x2="95" y2="130" stroke="#FF004D" stroke-width="5" stroke-linecap="round"/>
<line x1="95" y1="130" x2="145" y2="145" stroke="#FF004D" stroke-width="5" stroke-linecap="round"/>
<line x1="145" y1="145" x2="195" y2="135" stroke="#FF004D" stroke-width="5" stroke-linecap="round"/>
<line x1="195" y1="135" x2="180" y2="180" stroke="#FF004D" stroke-width="5" stroke-linecap="round"/>
<circle cx="160" cy="95" r="8" fill="#00C8FF"/>
<circle cx="160" cy="95" r="4" fill="#FFFFFF"/>
<circle cx="208" cy="85" r="8" fill="#00C8FF"/>
<circle cx="208" cy="85" r="4" fill="#FFFFFF"/>
<circle cx="50" cy="140" r="8" fill="#00C8FF"/>
<circle cx="50" cy="140" r="4" fill="#FFFFFF"/>
<circle cx="75" cy="185" r="8" fill="#00C8FF"/>
<circle cx="75" cy="185" r="4" fill="#FFFFFF"/>
<circle cx="130" cy="195" r="8" fill="#00C8FF"/>
<circle cx="130" cy="195" r="4" fill="#FFFFFF"/>
<circle cx="60" cy="90" r="10" fill="#FF004D"/>
<circle cx="60" cy="90" r="5" fill="#FFFFFF"/>
<circle cx="110" cy="70" r="10" fill="#FF004D"/>
<circle cx="110" cy="70" r="5" fill="#FFFFFF"/>
<circle cx="95" cy="130" r="10" fill="#FF004D"/>
<circle cx="95" cy="130" r="5" fill="#FFFFFF"/>
<circle cx="145" cy="145" r="10" fill="#FF004D"/>
<circle cx="145" cy="145" r="5" fill="#FFFFFF"/>
<circle cx="195" cy="135" r="10" fill="#FF004D"/>
<circle cx="195" cy="135" r="5" fill="#FFFFFF"/>
<circle cx="180" cy="180" r="10" fill="#FF004D"/>
<circle cx="180" cy="180" r="5" fill="#FFFFFF"/>
</svg>